PathFileType	4	(X/Y/Z)	D:\TRACE\v60_Jaco2_6-2-23\JustArmDRS_Motion2_3-platform.trc
DataRate	CameraRate	NumFrames	NumMarkers	Units	OrigDataRate	OrigDataStartFrame	OrigNumFrames
100.00	100.00	      53	5	mm	100.00	5227	      6969
Frame#	Time	Left_Front			Right_Front			Left_Aft			Right_Aft			Post			
		X1	Y1	Z1	X2	Y2	Z2	X3	Y3	Z3	X4	Y4	Z4	X5	Y5	Z5	

5227	52.260	-836.58057	-53.12310	-650.65771	733.50446	-51.31684	-656.02069	-744.68286	49.38732	480.11453	697.61505	50.34764	489.65445	-50.28008	1211.02722	-1102.01050	
5228	52.270	-835.83685	-53.00870	-650.63702	734.26611	-51.14422	-655.99329	-744.06891	49.36516	480.07266	698.18658	50.32105	489.73038	-49.51530	1211.04224	-1102.82361	
5229	52.280	-834.77924	-52.69553	-650.56323	734.88184	-51.05170	-656.08600	-743.27643	49.24573	480.11667	699.35266	50.21568	489.69501	-49.01203	1211.18774	-1103.61890	
5230	52.290	-834.22937	-52.86996	-650.67719	735.82678	-51.14054	-655.99463	-742.49225	49.05216	480.18500	699.96637	50.23374	489.73022	-48.08575	1211.16467	-1104.42456	
5231	52.300	-833.45300	-52.64211	-650.55664	736.56934	-50.91880	-655.89941	-741.70386	48.93585	480.22159	700.80511	50.18951	489.69998	-46.93350	1211.41357	-1105.08362	
5232	52.310	-832.73999	-52.51782	-650.64044	737.42401	-50.57980	-655.82336	-740.71277	48.76337	480.31534	701.76270	50.10268	489.68542	-46.28032	1211.66919	-1105.59851	
5233	52.320	-831.60876	-52.02648	-650.78625	738.44080	-50.18570	-655.82373	-740.02545	48.56582	480.35995	702.55688	49.88551	489.58759	-45.34618	1211.81250	-1106.54993	
5234	52.330	-830.86005	-51.92635	-650.49921	739.19824	-50.07193	-655.94366	-739.09131	48.43434	480.42279	703.16785	49.57465	489.61893	-44.61127	1212.35071	-1107.09119	
5235	52.340	-829.98560	-51.65881	-650.32471	740.14954	-49.79292	-655.67670	-738.23083	48.39703	480.49615	704.25824	49.25949	489.74402	-43.47796	1212.70190	-1107.54468	
5236	52.350	-829.32318	-51.11032	-650.40637	741.19568	-49.08938	-655.58020	-737.36945	48.03836	480.47232	705.12494	49.30045	489.81818	-42.76757	1213.44202	-1108.33862	
5237	52.360	-828.25708	-50.84858	-650.42480	741.80548	-48.71011	-655.78668	-736.36548	47.62669	480.62155	706.08533	48.90987	489.87381	-41.91814	1213.89441	-1108.71899	
5238	52.370	-827.27582	-50.35302	-650.33130	743.05109	-48.32024	-655.58014	-735.47217	47.36081	480.71402	706.75208	48.79246	489.82407	-40.48533	1214.31580	-1109.71448	
5239	52.380	-826.47491	-49.86960	-650.15253	743.71625	-47.86066	-655.49988	-734.72754	47.06797	480.89291	707.70856	48.29785	490.00473	-39.62163	1214.97583	-1110.09131	
5240	52.390	-825.56097	-49.42595	-650.08374	744.83942	-47.05435	-655.36792	-733.87311	46.85843	481.01831	708.77271	48.01208	490.28201	-38.61384	1215.69202	-1110.87207	
5241	52.400	-824.58038	-48.73621	-650.00104	745.56628	-47.37188	-655.17413	-732.66046	46.51313	481.28348	709.75647	47.64183	490.35501	-37.62274	1216.58362	-1111.23511	
5242	52.410	-823.66449	-48.12392	-649.96796	746.51550	-46.69704	-655.22968	-731.82587	45.98697	481.43369	710.81653	47.42198	490.49802	-36.52359	1217.42407	-1111.69275	
5243	52.420	-822.50836	-47.50639	-650.00946	748.15668	-45.23290	-654.77881	-730.66754	45.60971	481.52380	711.46643	46.61674	491.06900	-35.60627	1218.18286	-1112.32227	
5244	52.430	-821.72797	-47.04131	-649.75543	748.21881	-45.46566	-655.20813	-729.90741	45.32538	481.68579	712.46454	46.05436	491.17618	-34.49089	1219.11279	-1112.83057	
5245	52.440	-820.56824	-46.48634	-649.69788	750.12463	-44.07379	-654.78070	-728.93591	44.65636	481.93604	713.39520	45.62762	491.42291	-33.42888	1219.99548	-1113.26477	
5246	52.450	-819.58148	-45.85473	-649.61481	750.41681	-43.94904	-654.85718	-727.68909	44.22755	482.22723	714.50165	45.19998	491.60150	-32.63708	1221.12317	-1113.60254	
5247	52.460	-818.56390	-44.86198	-649.60339	751.23944	-43.53190	-654.59863	-726.88342	43.96906	482.34628	715.05524	44.72340	491.89957	-31.19188	1222.09363	-1114.06177	
5248	52.470	-817.74066	-44.16653	-649.31006	752.48254	-42.46868	-654.62067	-725.81830	43.30400	482.59171	716.71368	44.12732	491.96503	-30.36029	1223.28394	-1114.45850	
5249	52.480	-816.64026	-43.40138	-649.35229	753.50208	-41.60879	-654.64917	-724.53113	42.81426	482.85312	717.54413	43.61149	492.19833	-29.16854	1224.30481	-1114.59412	
5250	52.490	-815.48694	-42.62432	-649.19489	754.26782	-40.78949	-654.30243	-723.85895	42.32411	483.07156	718.45483	42.97775	492.43149	-27.57398	1225.61316	-1115.02344	
5251	52.500	-814.44061	-41.82476	-649.10742	755.54657	-40.12856	-654.18280	-722.69830	41.59843	483.31250	719.42737	42.45139	492.78775	-26.61899	1226.84949	-1115.16357	
5252	52.510	-813.40436	-40.56357	-648.95166	756.60284	-38.93654	-654.20215	-721.70135	40.99489	483.53406	720.43042	41.75979	492.92657	-25.83086	1228.30627	-1115.09070	
5253	52.520	-812.35950	-39.72819	-648.63892	757.54712	-38.00113	-653.94122	-720.73267	40.43291	483.77728	721.79486	41.13057	493.18399	-24.52369	1229.66943	-1115.03503	
5254	52.530	-811.21167	-38.91257	-648.47333	758.64459	-37.10988	-653.65900	-719.58942	39.68009	484.02386	722.65979	40.50514	493.54291	-23.24117	1231.01160	-1114.81653	
5255	52.540	-810.16040	-38.00922	-648.55298	759.90924	-36.26506	-653.74817	-718.51111	39.16125	484.18439	723.88580	39.73839	493.90173	-22.58333	1232.86707	-1114.81519	
5256	52.550	-809.28094	-36.70644	-648.25806	760.72931	-35.00362	-653.34882	-717.38354	38.50556	484.65161	724.86487	38.99116	494.16553	-20.87677	1234.51550	-1114.53845	
5257	52.560	-807.87750	-35.51015	-648.17810	762.10156	-34.05883	-653.10193	-716.18005	37.59565	484.92969	725.94153	38.30753	494.43689	-19.62980	1236.12683	-1113.95227	
5258	52.570	-806.61407	-34.56662	-647.77618	762.96991	-32.72498	-653.20471	-715.25488	37.05222	485.06360	727.13812	37.52448	494.67392	-18.78400	1237.70886	-1113.47998	
5259	52.580	-805.72711	-33.61694	-647.77539	764.13177	-31.91424	-652.95557	-713.86566	36.13787	485.52405	727.96796	36.73539	495.09061	-17.83210	1239.52417	-1112.69775	
5260	52.590	-804.85901	-32.19090	-647.47375	765.29901	-30.57891	-652.61005	-712.91437	35.42982	485.77621	729.59399	36.13111	495.31766	-16.29729	1241.27942	-1112.10132	
5261	52.600	-803.50684	-31.02619	-647.33234	766.54010	-29.37164	-652.29321	-711.76184	34.62294	486.05188	730.38049	35.25806	495.62143	-15.41494	1243.11975	-1110.82983	
5262	52.610	-802.29803	-30.08947	-647.09851	767.53357	-28.42084	-652.26355	-710.53864	33.83128	486.45401	731.58173	34.48186	495.99619	-14.64522	1244.92346	-1109.87512	
5263	52.620	-801.24426	-28.71226	-647.00897	769.07092	-26.88480	-651.54108	-709.67029	32.96717	486.63318	732.80029	33.60183	496.23938	-13.13294	1246.99341	-1108.82141	
5264	52.630	-800.09167	-27.38477	-646.75031	769.50513	-25.99022	-652.03180	-708.43176	32.09140	486.99149	734.02496	32.87206	496.58624	-11.74333	1248.73828	-1107.50293	
5265	52.640	-798.99377	-26.35408	-646.55188	770.88922	-24.65707	-651.76123	-707.40918	31.42349	487.26810	734.93085	31.88181	496.91983	-11.00484	1250.98608	-1105.74487	
5266	52.650	-797.80688	-24.96231	-646.33051	772.28619	-23.47447	-651.30231	-706.17419	30.42480	487.67291	736.26465	30.87972	497.08167	-9.52490	1253.01965	-1103.99792	
5267	52.660	-796.74823	-23.52908	-645.87769	772.83154	-22.13325	-651.25317	-705.01202	29.68125	488.13062	737.26245	29.95131	497.46680	-8.45836	1255.07593	-1101.83496	
5268	52.670	-795.66504	-22.44403	-645.73987	774.60797	-20.59771	-650.78210	-703.91400	28.75842	488.49396	738.35669	29.16802	497.95084	-7.25027	1257.40955	-1099.17627	
5269	52.680	-794.49475	-20.75358	-645.58990	775.39697	-19.35103	-650.73267	-702.63422	27.82085	488.80695	739.56995	28.21667	498.32571	-6.12742	1259.61353	-1096.35693	
5270	52.690	-793.22620	-19.73235	-645.20050	776.52301	-18.11356	-650.29132	-701.61359	27.00985	489.22125	740.71582	27.13636	498.60446	-5.26381	1262.02087	-1093.14587	
5271	52.700	-792.04425	-18.54426	-644.95935	777.78571	-16.64657	-650.10516	-700.53583	25.97720	489.59488	742.00964	26.16868	498.97211	-4.06043	1264.19592	-1089.69031	
5272	52.710	-791.00262	-16.96569	-644.64899	778.68951	-14.97045	-649.89136	-699.28717	25.04903	489.86682	742.87103	25.11335	499.22769	-2.88289	1266.71985	-1086.07800	
5273	52.720	-789.50604	-16.03821	-644.61243	779.97668	-14.00698	-649.56073	-698.23279	24.07813	490.24863	744.09583	24.15609	499.68546	-1.84244	1268.95679	-1082.04773	
5274	52.730	-788.69482	-13.94525	-644.04132	781.01910	-12.32587	-649.22308	-697.02399	23.11453	490.52856	745.11353	23.12319	500.13058	-0.37905	1271.59338	-1078.14453	
5275	52.740	-787.66241	-12.28067	-643.81610	782.54797	-10.72097	-648.78510	-695.81067	22.11528	490.95282	746.19214	22.10476	500.44315	0.97197	1273.82117	-1074.01318	
5276	52.750	-786.74353	-11.02810	-643.44434	783.30139	-9.43818	-648.78815	-694.73358	21.15507	491.31006	747.33344	21.09847	500.92297	1.93117	1276.28540	-1069.91504	
5277	52.760	-785.68488	-9.38377	-643.19690	784.86517	-7.95773	-648.11041	-693.45605	20.03857	491.64478	748.39825	19.98969	501.21896	2.78419	1278.71143	-1065.20605	
5278	52.770	-784.33716	-7.82838	-642.91418	785.61487	-6.38488	-648.08441	-692.50195	19.10853	492.04987	749.94720	18.96981	501.47919	3.95557	1281.22827	-1060.67993	
5279	52.780	-783.24176	-6.45556	-642.54370	786.70929	-5.04051	-647.96375	-691.37701	17.90018	492.40701	750.87573	17.94690	501.82437	5.05046	1283.88696	-1055.91382	
